<mxfile host="app.diagrams.net" agent="Mozilla/5.0 (Windows NT 10.0; Win64; x64) AppleWebKit/537.36 (KHTML, like Gecko) Chrome/136.0.0.0 Safari/537.36 Edg/136.0.0.0" version="27.0.6">
  <diagram id="R2lEEEUBdFMjLlhIrx00" name="Page-1">
    <mxGraphModel dx="1723" dy="913" grid="1" gridSize="10" guides="1" tooltips="1" connect="1" arrows="1" fold="1" page="1" pageScale="1" pageWidth="850" pageHeight="1100" math="0" shadow="0" extFonts="Permanent Marker^https://fonts.googleapis.com/css?family=Permanent+Marker">
      <root>
        <mxCell id="0" />
        <mxCell id="1" parent="0" />
        <mxCell id="4e2i7B92s4lmDY4O2SuO-6" value="&lt;b&gt;USUARIO&lt;/b&gt;" style="swimlane;childLayout=stackLayout;horizontal=1;startSize=50;horizontalStack=0;rounded=1;fontSize=14;fontStyle=0;strokeWidth=2;resizeParent=0;resizeLast=1;shadow=0;dashed=0;align=center;arcSize=4;whiteSpace=wrap;html=1;" parent="1" vertex="1">
          <mxGeometry x="280" y="180" width="160" height="120" as="geometry" />
        </mxCell>
        <mxCell id="4e2i7B92s4lmDY4O2SuO-7" value="&lt;u&gt;nombre&lt;/u&gt;&lt;br&gt;&lt;br&gt;&lt;div&gt;contraseña&lt;/div&gt;" style="align=left;strokeColor=none;fillColor=none;spacingLeft=4;spacingRight=4;fontSize=12;verticalAlign=top;resizable=0;rotatable=0;part=1;html=1;whiteSpace=wrap;" parent="4e2i7B92s4lmDY4O2SuO-6" vertex="1">
          <mxGeometry y="50" width="160" height="70" as="geometry" />
        </mxCell>
        <mxCell id="4e2i7B92s4lmDY4O2SuO-20" style="edgeStyle=none;curved=1;rounded=0;orthogonalLoop=1;jettySize=auto;html=1;exitX=0.5;exitY=0;exitDx=0;exitDy=0;entryX=0;entryY=0.5;entryDx=0;entryDy=0;fontSize=12;startSize=8;endSize=8;endArrow=none;startFill=0;" parent="1" source="4e2i7B92s4lmDY4O2SuO-8" target="4e2i7B92s4lmDY4O2SuO-13" edge="1">
          <mxGeometry relative="1" as="geometry" />
        </mxCell>
        <mxCell id="3zyrOIfzfFuT3gQMHK2X-5" style="edgeStyle=orthogonalEdgeStyle;rounded=0;orthogonalLoop=1;jettySize=auto;html=1;exitX=0.25;exitY=0;exitDx=0;exitDy=0;entryX=1;entryY=0.5;entryDx=0;entryDy=0;endArrow=none;startFill=0;" edge="1" parent="1" source="4e2i7B92s4lmDY4O2SuO-8" target="3zyrOIfzfFuT3gQMHK2X-1">
          <mxGeometry relative="1" as="geometry" />
        </mxCell>
        <mxCell id="4e2i7B92s4lmDY4O2SuO-8" value="&lt;b&gt;COMPRADOR&lt;/b&gt;" style="swimlane;childLayout=stackLayout;horizontal=1;startSize=50;horizontalStack=0;rounded=1;fontSize=14;fontStyle=0;strokeWidth=2;resizeParent=0;resizeLast=1;shadow=0;dashed=0;align=center;arcSize=4;whiteSpace=wrap;html=1;" parent="1" vertex="1">
          <mxGeometry x="95" y="400" width="160" height="120" as="geometry" />
        </mxCell>
        <mxCell id="4e2i7B92s4lmDY4O2SuO-19" style="edgeStyle=none;curved=1;rounded=0;orthogonalLoop=1;jettySize=auto;html=1;exitX=0.5;exitY=0;exitDx=0;exitDy=0;entryX=0.5;entryY=1;entryDx=0;entryDy=0;fontSize=12;startSize=8;endSize=8;endArrow=none;startFill=0;" parent="1" source="4e2i7B92s4lmDY4O2SuO-10" target="4e2i7B92s4lmDY4O2SuO-13" edge="1">
          <mxGeometry relative="1" as="geometry" />
        </mxCell>
        <mxCell id="4e2i7B92s4lmDY4O2SuO-10" value="&lt;b&gt;VENDEDOR&lt;/b&gt;" style="swimlane;childLayout=stackLayout;horizontal=1;startSize=50;horizontalStack=0;rounded=1;fontSize=14;fontStyle=0;strokeWidth=2;resizeParent=0;resizeLast=1;shadow=0;dashed=0;align=center;arcSize=4;whiteSpace=wrap;html=1;" parent="1" vertex="1">
          <mxGeometry x="280" y="400" width="160" height="120" as="geometry" />
        </mxCell>
        <mxCell id="4e2i7B92s4lmDY4O2SuO-18" style="edgeStyle=none;curved=1;rounded=0;orthogonalLoop=1;jettySize=auto;html=1;exitX=0.5;exitY=0;exitDx=0;exitDy=0;entryX=1;entryY=0.5;entryDx=0;entryDy=0;fontSize=12;startSize=8;endSize=8;endArrow=none;startFill=0;" parent="1" source="4e2i7B92s4lmDY4O2SuO-11" target="4e2i7B92s4lmDY4O2SuO-13" edge="1">
          <mxGeometry relative="1" as="geometry" />
        </mxCell>
        <mxCell id="4e2i7B92s4lmDY4O2SuO-11" value="&lt;b&gt;ADMINISTRADOR&lt;/b&gt;" style="swimlane;childLayout=stackLayout;horizontal=1;startSize=50;horizontalStack=0;rounded=1;fontSize=14;fontStyle=0;strokeWidth=2;resizeParent=0;resizeLast=1;shadow=0;dashed=0;align=center;arcSize=4;whiteSpace=wrap;html=1;" parent="1" vertex="1">
          <mxGeometry x="465" y="400" width="160" height="120" as="geometry" />
        </mxCell>
        <mxCell id="4e2i7B92s4lmDY4O2SuO-14" style="edgeStyle=none;curved=1;rounded=0;orthogonalLoop=1;jettySize=auto;html=1;exitX=0.5;exitY=0;exitDx=0;exitDy=0;entryX=0.5;entryY=1;entryDx=0;entryDy=0;fontSize=12;startSize=8;endSize=8;" parent="1" source="4e2i7B92s4lmDY4O2SuO-13" target="4e2i7B92s4lmDY4O2SuO-7" edge="1">
          <mxGeometry relative="1" as="geometry" />
        </mxCell>
        <mxCell id="4e2i7B92s4lmDY4O2SuO-13" value="P, S" style="ellipse;whiteSpace=wrap;html=1;aspect=fixed;" parent="1" vertex="1">
          <mxGeometry x="340" y="320" width="40" height="40" as="geometry" />
        </mxCell>
        <mxCell id="4e2i7B92s4lmDY4O2SuO-21" value="tipos_usuario" style="text;html=1;align=center;verticalAlign=middle;whiteSpace=wrap;rounded=0;" parent="1" vertex="1">
          <mxGeometry x="390" y="310" width="60" height="30" as="geometry" />
        </mxCell>
        <mxCell id="4e2i7B92s4lmDY4O2SuO-22" value="&lt;b&gt;INMUEBLE&lt;/b&gt;" style="swimlane;childLayout=stackLayout;horizontal=1;startSize=50;horizontalStack=0;rounded=1;fontSize=14;fontStyle=0;strokeWidth=2;resizeParent=0;resizeLast=1;shadow=0;dashed=0;align=center;arcSize=4;whiteSpace=wrap;html=1;" parent="1" vertex="1">
          <mxGeometry x="875" y="180" width="160" height="120" as="geometry" />
        </mxCell>
        <mxCell id="4e2i7B92s4lmDY4O2SuO-23" value="&lt;u&gt;id&lt;/u&gt;&lt;br&gt;&lt;br&gt;&lt;div&gt;zona&lt;/div&gt;" style="align=left;strokeColor=none;fillColor=none;spacingLeft=4;spacingRight=4;fontSize=12;verticalAlign=top;resizable=0;rotatable=0;part=1;html=1;whiteSpace=wrap;" parent="4e2i7B92s4lmDY4O2SuO-22" vertex="1">
          <mxGeometry y="50" width="160" height="70" as="geometry" />
        </mxCell>
        <mxCell id="v-jbXw5zntiqwaU9itKJ-7" style="edgeStyle=none;curved=1;rounded=0;orthogonalLoop=1;jettySize=auto;html=1;exitX=0.5;exitY=0;exitDx=0;exitDy=0;entryX=0;entryY=0.5;entryDx=0;entryDy=0;fontSize=12;startSize=8;endSize=8;endArrow=none;startFill=0;" parent="1" edge="1">
          <mxGeometry relative="1" as="geometry">
            <mxPoint x="935" y="340" as="targetPoint" />
            <mxPoint x="854.9999999999998" y="399.9999999999999" as="sourcePoint" />
          </mxGeometry>
        </mxCell>
        <mxCell id="v-jbXw5zntiqwaU9itKJ-11" style="edgeStyle=none;curved=1;rounded=0;orthogonalLoop=1;jettySize=auto;html=1;exitX=0.5;exitY=0;exitDx=0;exitDy=0;entryX=1;entryY=0.5;entryDx=0;entryDy=0;fontSize=12;startSize=8;endSize=8;endArrow=none;startFill=0;" parent="1" edge="1">
          <mxGeometry relative="1" as="geometry">
            <mxPoint x="975" y="340" as="targetPoint" />
            <mxPoint x="1055.0000000000002" y="399.9999999999999" as="sourcePoint" />
          </mxGeometry>
        </mxCell>
        <mxCell id="v-jbXw5zntiqwaU9itKJ-15" style="edgeStyle=orthogonalEdgeStyle;rounded=0;orthogonalLoop=1;jettySize=auto;html=1;exitX=0.5;exitY=0;exitDx=0;exitDy=0;entryX=0.5;entryY=1;entryDx=0;entryDy=0;" parent="1" source="v-jbXw5zntiqwaU9itKJ-14" target="4e2i7B92s4lmDY4O2SuO-23" edge="1">
          <mxGeometry relative="1" as="geometry" />
        </mxCell>
        <mxCell id="v-jbXw5zntiqwaU9itKJ-14" value="P, S" style="ellipse;whiteSpace=wrap;html=1;aspect=fixed;" parent="1" vertex="1">
          <mxGeometry x="935" y="320" width="40" height="40" as="geometry" />
        </mxCell>
        <mxCell id="v-jbXw5zntiqwaU9itKJ-16" value="tipos_inmueble" style="text;html=1;align=center;verticalAlign=middle;whiteSpace=wrap;rounded=0;" parent="1" vertex="1">
          <mxGeometry x="990" y="310" width="60" height="30" as="geometry" />
        </mxCell>
        <mxCell id="v-jbXw5zntiqwaU9itKJ-18" value="&lt;b&gt;PISO&lt;/b&gt;" style="swimlane;childLayout=stackLayout;horizontal=1;startSize=50;horizontalStack=0;rounded=1;fontSize=14;fontStyle=0;strokeWidth=2;resizeParent=0;resizeLast=1;shadow=0;dashed=0;align=center;arcSize=4;whiteSpace=wrap;html=1;" parent="1" vertex="1">
          <mxGeometry x="775" y="400" width="160" height="140" as="geometry" />
        </mxCell>
        <mxCell id="v-jbXw5zntiqwaU9itKJ-19" value="&lt;div&gt;ascensor&lt;/div&gt;&lt;div&gt;&lt;br&gt;&lt;/div&gt;planta&lt;div&gt;&lt;br&gt;&lt;/div&gt;&lt;div&gt;puerta&lt;/div&gt;" style="align=left;strokeColor=none;fillColor=none;spacingLeft=4;spacingRight=4;fontSize=12;verticalAlign=top;resizable=0;rotatable=0;part=1;html=1;whiteSpace=wrap;" parent="v-jbXw5zntiqwaU9itKJ-18" vertex="1">
          <mxGeometry y="50" width="160" height="90" as="geometry" />
        </mxCell>
        <mxCell id="v-jbXw5zntiqwaU9itKJ-20" value="&lt;b&gt;VIVIENDA UNIFAMILIAR&lt;/b&gt;" style="swimlane;childLayout=stackLayout;horizontal=1;startSize=50;horizontalStack=0;rounded=1;fontSize=14;fontStyle=0;strokeWidth=2;resizeParent=0;resizeLast=1;shadow=0;dashed=0;align=center;arcSize=4;whiteSpace=wrap;html=1;" parent="1" vertex="1">
          <mxGeometry x="975" y="400" width="160" height="120" as="geometry" />
        </mxCell>
        <mxCell id="v-jbXw5zntiqwaU9itKJ-21" value="piscina&lt;div&gt;&lt;br&gt;&lt;/div&gt;&lt;div&gt;superficie_jardin&lt;/div&gt;" style="align=left;strokeColor=none;fillColor=none;spacingLeft=4;spacingRight=4;fontSize=12;verticalAlign=top;resizable=0;rotatable=0;part=1;html=1;whiteSpace=wrap;" parent="v-jbXw5zntiqwaU9itKJ-20" vertex="1">
          <mxGeometry y="50" width="160" height="70" as="geometry" />
        </mxCell>
        <mxCell id="v-jbXw5zntiqwaU9itKJ-22" value="&lt;b&gt;HABITACIÓN&lt;/b&gt;" style="swimlane;childLayout=stackLayout;horizontal=1;startSize=50;horizontalStack=0;rounded=1;fontSize=14;fontStyle=0;strokeWidth=2;resizeParent=0;resizeLast=1;shadow=0;dashed=0;align=center;arcSize=4;whiteSpace=wrap;html=1;" parent="1" vertex="1">
          <mxGeometry x="1520" y="180" width="160" height="120" as="geometry" />
        </mxCell>
        <mxCell id="v-jbXw5zntiqwaU9itKJ-23" value="&lt;u&gt;id&lt;/u&gt;&lt;div&gt;&lt;br&gt;&lt;/div&gt;&lt;div&gt;superficie&lt;/div&gt;" style="align=left;strokeColor=none;fillColor=none;spacingLeft=4;spacingRight=4;fontSize=12;verticalAlign=top;resizable=0;rotatable=0;part=1;html=1;whiteSpace=wrap;" parent="v-jbXw5zntiqwaU9itKJ-22" vertex="1">
          <mxGeometry y="50" width="160" height="70" as="geometry" />
        </mxCell>
        <mxCell id="v-jbXw5zntiqwaU9itKJ-26" style="edgeStyle=orthogonalEdgeStyle;rounded=0;orthogonalLoop=1;jettySize=auto;html=1;exitX=0.5;exitY=0;exitDx=0;exitDy=0;entryX=0.5;entryY=1;entryDx=0;entryDy=0;" parent="1" source="v-jbXw5zntiqwaU9itKJ-27" edge="1">
          <mxGeometry relative="1" as="geometry">
            <mxPoint x="1600" y="300" as="targetPoint" />
          </mxGeometry>
        </mxCell>
        <mxCell id="v-jbXw5zntiqwaU9itKJ-42" style="rounded=0;orthogonalLoop=1;jettySize=auto;html=1;exitX=1;exitY=0.5;exitDx=0;exitDy=0;entryX=0.5;entryY=0;entryDx=0;entryDy=0;endArrow=none;startFill=0;" parent="1" target="v-jbXw5zntiqwaU9itKJ-37" edge="1">
          <mxGeometry relative="1" as="geometry">
            <mxPoint x="1620" y="345" as="sourcePoint" />
          </mxGeometry>
        </mxCell>
        <mxCell id="v-jbXw5zntiqwaU9itKJ-27" value="P, S" style="ellipse;whiteSpace=wrap;html=1;aspect=fixed;" parent="1" vertex="1">
          <mxGeometry x="1580" y="320" width="40" height="40" as="geometry" />
        </mxCell>
        <mxCell id="v-jbXw5zntiqwaU9itKJ-28" value="tipos_habitacion" style="text;html=1;align=center;verticalAlign=middle;whiteSpace=wrap;rounded=0;" parent="1" vertex="1">
          <mxGeometry x="1635" y="310" width="60" height="30" as="geometry" />
        </mxCell>
        <mxCell id="v-jbXw5zntiqwaU9itKJ-39" style="rounded=0;orthogonalLoop=1;jettySize=auto;html=1;exitX=0.5;exitY=0;exitDx=0;exitDy=0;entryX=0;entryY=0.5;entryDx=0;entryDy=0;endArrow=none;startFill=0;" parent="1" source="v-jbXw5zntiqwaU9itKJ-29" edge="1">
          <mxGeometry relative="1" as="geometry">
            <mxPoint x="1580" y="345" as="targetPoint" />
          </mxGeometry>
        </mxCell>
        <mxCell id="v-jbXw5zntiqwaU9itKJ-29" value="&lt;b&gt;SALÓN&lt;/b&gt;" style="swimlane;childLayout=stackLayout;horizontal=1;startSize=50;horizontalStack=0;rounded=1;fontSize=14;fontStyle=0;strokeWidth=2;resizeParent=0;resizeLast=1;shadow=0;dashed=0;align=center;arcSize=4;whiteSpace=wrap;html=1;" parent="1" vertex="1">
          <mxGeometry x="1210" y="415" width="160" height="140" as="geometry" />
        </mxCell>
        <mxCell id="v-jbXw5zntiqwaU9itKJ-30" value="televisor&lt;div&gt;&lt;br&gt;&lt;/div&gt;&lt;div&gt;sofá&lt;/div&gt;&lt;div&gt;&lt;br&gt;&lt;/div&gt;&lt;div&gt;mesa_recreativa&lt;/div&gt;" style="align=left;strokeColor=none;fillColor=none;spacingLeft=4;spacingRight=4;fontSize=12;verticalAlign=top;resizable=0;rotatable=0;part=1;html=1;whiteSpace=wrap;" parent="v-jbXw5zntiqwaU9itKJ-29" vertex="1">
          <mxGeometry y="50" width="160" height="90" as="geometry" />
        </mxCell>
        <mxCell id="v-jbXw5zntiqwaU9itKJ-40" style="rounded=0;orthogonalLoop=1;jettySize=auto;html=1;exitX=0.5;exitY=0;exitDx=0;exitDy=0;entryX=0;entryY=1;entryDx=0;entryDy=0;endArrow=none;startFill=0;" parent="1" source="v-jbXw5zntiqwaU9itKJ-31" edge="1">
          <mxGeometry relative="1" as="geometry">
            <mxPoint x="1585.857864376269" y="359.14213562373106" as="targetPoint" />
          </mxGeometry>
        </mxCell>
        <mxCell id="v-jbXw5zntiqwaU9itKJ-31" value="&lt;b&gt;BAÑO&lt;/b&gt;" style="swimlane;childLayout=stackLayout;horizontal=1;startSize=50;horizontalStack=0;rounded=1;fontSize=14;fontStyle=0;strokeWidth=2;resizeParent=0;resizeLast=1;shadow=0;dashed=0;align=center;arcSize=4;whiteSpace=wrap;html=1;" parent="1" vertex="1">
          <mxGeometry x="1410" y="415" width="160" height="170" as="geometry" />
        </mxCell>
        <mxCell id="v-jbXw5zntiqwaU9itKJ-32" value="ducha&lt;div&gt;&lt;br&gt;&lt;/div&gt;&lt;div&gt;bañera&lt;/div&gt;&lt;div&gt;&lt;br&gt;&lt;/div&gt;&lt;div&gt;lavabo&lt;/div&gt;&lt;div&gt;&lt;br&gt;&lt;/div&gt;&lt;div&gt;váter&lt;/div&gt;" style="align=left;strokeColor=none;fillColor=none;spacingLeft=4;spacingRight=4;fontSize=12;verticalAlign=top;resizable=0;rotatable=0;part=1;html=1;whiteSpace=wrap;" parent="v-jbXw5zntiqwaU9itKJ-31" vertex="1">
          <mxGeometry y="50" width="160" height="120" as="geometry" />
        </mxCell>
        <mxCell id="v-jbXw5zntiqwaU9itKJ-41" style="rounded=0;orthogonalLoop=1;jettySize=auto;html=1;exitX=0.5;exitY=0;exitDx=0;exitDy=0;entryX=1;entryY=1;entryDx=0;entryDy=0;endArrow=none;startFill=0;" parent="1" source="v-jbXw5zntiqwaU9itKJ-33" edge="1">
          <mxGeometry relative="1" as="geometry">
            <mxPoint x="1614.142135623731" y="359.14213562373106" as="targetPoint" />
          </mxGeometry>
        </mxCell>
        <mxCell id="v-jbXw5zntiqwaU9itKJ-33" value="&lt;b&gt;COCINA&lt;/b&gt;" style="swimlane;childLayout=stackLayout;horizontal=1;startSize=50;horizontalStack=0;rounded=1;fontSize=14;fontStyle=0;strokeWidth=2;resizeParent=0;resizeLast=1;shadow=0;dashed=0;align=center;arcSize=4;whiteSpace=wrap;html=1;" parent="1" vertex="1">
          <mxGeometry x="1610" y="415" width="160" height="200" as="geometry" />
        </mxCell>
        <mxCell id="v-jbXw5zntiqwaU9itKJ-34" value="frigorífico&lt;div&gt;&lt;br&gt;&lt;/div&gt;&lt;div&gt;horno&lt;/div&gt;&lt;div&gt;&lt;br&gt;&lt;/div&gt;&lt;div&gt;microondas&lt;/div&gt;&lt;div&gt;&lt;br&gt;&lt;/div&gt;&lt;div&gt;fregadero&lt;/div&gt;&lt;div&gt;&lt;br&gt;&lt;/div&gt;&lt;div&gt;mesa&lt;/div&gt;" style="align=left;strokeColor=none;fillColor=none;spacingLeft=4;spacingRight=4;fontSize=12;verticalAlign=top;resizable=0;rotatable=0;part=1;html=1;whiteSpace=wrap;" parent="v-jbXw5zntiqwaU9itKJ-33" vertex="1">
          <mxGeometry y="50" width="160" height="150" as="geometry" />
        </mxCell>
        <mxCell id="v-jbXw5zntiqwaU9itKJ-37" value="&lt;b&gt;DORMITORIO&lt;/b&gt;" style="swimlane;childLayout=stackLayout;horizontal=1;startSize=50;horizontalStack=0;rounded=1;fontSize=14;fontStyle=0;strokeWidth=2;resizeParent=0;resizeLast=1;shadow=0;dashed=0;align=center;arcSize=4;whiteSpace=wrap;html=1;" parent="1" vertex="1">
          <mxGeometry x="1810" y="415" width="160" height="140" as="geometry" />
        </mxCell>
        <mxCell id="v-jbXw5zntiqwaU9itKJ-38" value="cama&lt;div&gt;&lt;br&gt;&lt;/div&gt;&lt;div&gt;lámpara&lt;/div&gt;&lt;div&gt;&lt;br&gt;&lt;/div&gt;&lt;div&gt;mesa_estudio&lt;/div&gt;" style="align=left;strokeColor=none;fillColor=none;spacingLeft=4;spacingRight=4;fontSize=12;verticalAlign=top;resizable=0;rotatable=0;part=1;html=1;whiteSpace=wrap;" parent="v-jbXw5zntiqwaU9itKJ-37" vertex="1">
          <mxGeometry y="50" width="160" height="90" as="geometry" />
        </mxCell>
        <mxCell id="v-jbXw5zntiqwaU9itKJ-43" value="&lt;b&gt;PUBLICACIÓN&lt;/b&gt;" style="swimlane;childLayout=stackLayout;horizontal=1;startSize=50;horizontalStack=0;rounded=1;fontSize=14;fontStyle=0;strokeWidth=2;resizeParent=0;resizeLast=1;shadow=0;dashed=0;align=center;arcSize=4;whiteSpace=wrap;html=1;" parent="1" vertex="1">
          <mxGeometry x="380" y="690" width="160" height="170" as="geometry" />
        </mxCell>
        <mxCell id="v-jbXw5zntiqwaU9itKJ-44" value="&lt;u&gt;id&lt;/u&gt;&lt;br&gt;&lt;br&gt;&lt;div&gt;precio_listado&lt;/div&gt;&lt;div&gt;&lt;br&gt;&lt;/div&gt;&lt;div&gt;descripcion&lt;/div&gt;&lt;div&gt;&lt;br&gt;&lt;/div&gt;&lt;div&gt;fecha&lt;/div&gt;" style="align=left;strokeColor=none;fillColor=none;spacingLeft=4;spacingRight=4;fontSize=12;verticalAlign=top;resizable=0;rotatable=0;part=1;html=1;whiteSpace=wrap;" parent="v-jbXw5zntiqwaU9itKJ-43" vertex="1">
          <mxGeometry y="50" width="160" height="120" as="geometry" />
        </mxCell>
        <mxCell id="v-jbXw5zntiqwaU9itKJ-54" value="&lt;b&gt;COMENTARIO&lt;/b&gt;" style="swimlane;childLayout=stackLayout;horizontal=1;startSize=50;horizontalStack=0;rounded=1;fontSize=14;fontStyle=0;strokeWidth=2;resizeParent=0;resizeLast=1;shadow=0;dashed=0;align=center;arcSize=4;whiteSpace=wrap;html=1;" parent="1" vertex="1">
          <mxGeometry x="95" y="690" width="160" height="140" as="geometry" />
        </mxCell>
        <mxCell id="v-jbXw5zntiqwaU9itKJ-55" value="&lt;u&gt;id&lt;/u&gt;&lt;br&gt;&lt;br&gt;&lt;div&gt;fecha&lt;/div&gt;&lt;div&gt;&lt;br&gt;&lt;/div&gt;&lt;div&gt;contenido&lt;/div&gt;&lt;div&gt;&lt;br&gt;&lt;/div&gt;" style="align=left;strokeColor=none;fillColor=none;spacingLeft=4;spacingRight=4;fontSize=12;verticalAlign=top;resizable=0;rotatable=0;part=1;html=1;whiteSpace=wrap;" parent="v-jbXw5zntiqwaU9itKJ-54" vertex="1">
          <mxGeometry y="50" width="160" height="90" as="geometry" />
        </mxCell>
        <mxCell id="v-jbXw5zntiqwaU9itKJ-61" style="edgeStyle=orthogonalEdgeStyle;rounded=0;orthogonalLoop=1;jettySize=auto;html=1;exitX=1;exitY=0.5;exitDx=0;exitDy=0;entryX=0.5;entryY=0;entryDx=0;entryDy=0;endArrow=none;startFill=0;" parent="1" source="v-jbXw5zntiqwaU9itKJ-58" target="v-jbXw5zntiqwaU9itKJ-54" edge="1">
          <mxGeometry relative="1" as="geometry" />
        </mxCell>
        <mxCell id="v-jbXw5zntiqwaU9itKJ-58" value="" style="triangle;whiteSpace=wrap;html=1;direction=south;fillColor=#000000;" parent="1" vertex="1">
          <mxGeometry x="150" y="605" width="50" height="25" as="geometry" />
        </mxCell>
        <mxCell id="v-jbXw5zntiqwaU9itKJ-60" style="edgeStyle=orthogonalEdgeStyle;rounded=0;orthogonalLoop=1;jettySize=auto;html=1;exitX=1;exitY=0.5;exitDx=0;exitDy=0;entryX=0.5;entryY=1;entryDx=0;entryDy=0;endArrow=none;startFill=0;" parent="1" source="v-jbXw5zntiqwaU9itKJ-59" target="4e2i7B92s4lmDY4O2SuO-8" edge="1">
          <mxGeometry relative="1" as="geometry" />
        </mxCell>
        <mxCell id="v-jbXw5zntiqwaU9itKJ-59" value="" style="triangle;whiteSpace=wrap;html=1;direction=north;" parent="1" vertex="1">
          <mxGeometry x="150" y="580" width="50" height="25" as="geometry" />
        </mxCell>
        <mxCell id="v-jbXw5zntiqwaU9itKJ-62" value="escrito_por" style="text;html=1;align=center;verticalAlign=middle;whiteSpace=wrap;rounded=0;" parent="1" vertex="1">
          <mxGeometry x="80" y="590" width="60" height="30" as="geometry" />
        </mxCell>
        <mxCell id="v-jbXw5zntiqwaU9itKJ-63" value="0..1" style="text;html=1;align=center;verticalAlign=middle;whiteSpace=wrap;rounded=0;" parent="1" vertex="1">
          <mxGeometry x="180" y="660" width="60" height="30" as="geometry" />
        </mxCell>
        <mxCell id="v-jbXw5zntiqwaU9itKJ-64" value="0..N" style="text;html=1;align=center;verticalAlign=middle;whiteSpace=wrap;rounded=0;" parent="1" vertex="1">
          <mxGeometry x="180" y="520" width="60" height="30" as="geometry" />
        </mxCell>
        <mxCell id="v-jbXw5zntiqwaU9itKJ-66" value="" style="triangle;whiteSpace=wrap;html=1;direction=west;fillColor=#FFFFFF;" parent="1" vertex="1">
          <mxGeometry x="630" y="215" width="25" height="50" as="geometry" />
        </mxCell>
        <mxCell id="v-jbXw5zntiqwaU9itKJ-73" style="edgeStyle=orthogonalEdgeStyle;rounded=0;orthogonalLoop=1;jettySize=auto;html=1;exitX=1;exitY=0.5;exitDx=0;exitDy=0;entryX=0;entryY=0.5;entryDx=0;entryDy=0;endArrow=none;startFill=0;" parent="1" source="v-jbXw5zntiqwaU9itKJ-68" target="4e2i7B92s4lmDY4O2SuO-22" edge="1">
          <mxGeometry relative="1" as="geometry" />
        </mxCell>
        <mxCell id="v-jbXw5zntiqwaU9itKJ-68" value="" style="triangle;whiteSpace=wrap;html=1;direction=east;gradientColor=none;fillColor=#000000;" parent="1" vertex="1">
          <mxGeometry x="655" y="215" width="25" height="50" as="geometry" />
        </mxCell>
        <mxCell id="v-jbXw5zntiqwaU9itKJ-70" value="0..1" style="text;html=1;align=center;verticalAlign=middle;whiteSpace=wrap;rounded=0;" parent="1" vertex="1">
          <mxGeometry x="815" y="210" width="60" height="30" as="geometry" />
        </mxCell>
        <mxCell id="v-jbXw5zntiqwaU9itKJ-71" value="0..N" style="text;html=1;align=center;verticalAlign=middle;whiteSpace=wrap;rounded=0;" parent="1" vertex="1">
          <mxGeometry x="440" y="210" width="60" height="30" as="geometry" />
        </mxCell>
        <mxCell id="v-jbXw5zntiqwaU9itKJ-76" style="edgeStyle=orthogonalEdgeStyle;rounded=0;orthogonalLoop=1;jettySize=auto;html=1;exitX=1;exitY=0.5;exitDx=0;exitDy=0;endArrow=none;startFill=0;entryX=1;entryY=0.143;entryDx=0;entryDy=0;entryPerimeter=0;" parent="1" source="v-jbXw5zntiqwaU9itKJ-66" target="4e2i7B92s4lmDY4O2SuO-7" edge="1">
          <mxGeometry relative="1" as="geometry">
            <mxPoint x="625" y="239.57" as="sourcePoint" />
            <mxPoint x="480" y="240" as="targetPoint" />
          </mxGeometry>
        </mxCell>
        <mxCell id="v-jbXw5zntiqwaU9itKJ-77" value="es_propietario" style="text;html=1;align=center;verticalAlign=middle;whiteSpace=wrap;rounded=0;" parent="1" vertex="1">
          <mxGeometry x="625" y="180" width="60" height="30" as="geometry" />
        </mxCell>
        <mxCell id="3zyrOIfzfFuT3gQMHK2X-1" value="" style="triangle;whiteSpace=wrap;html=1;direction=west;fillColor=#000000;" vertex="1" parent="1">
          <mxGeometry x="525" y="110" width="25" height="50" as="geometry" />
        </mxCell>
        <mxCell id="3zyrOIfzfFuT3gQMHK2X-6" style="edgeStyle=orthogonalEdgeStyle;rounded=0;orthogonalLoop=1;jettySize=auto;html=1;exitX=1;exitY=0.5;exitDx=0;exitDy=0;endArrow=none;startFill=0;entryX=0.5;entryY=0;entryDx=0;entryDy=0;" edge="1" parent="1" source="3zyrOIfzfFuT3gQMHK2X-2" target="4e2i7B92s4lmDY4O2SuO-22">
          <mxGeometry relative="1" as="geometry">
            <mxPoint x="955" y="190" as="targetPoint" />
          </mxGeometry>
        </mxCell>
        <mxCell id="3zyrOIfzfFuT3gQMHK2X-2" value="" style="triangle;whiteSpace=wrap;html=1;direction=east;gradientColor=none;fillColor=#000000;" vertex="1" parent="1">
          <mxGeometry x="550" y="110" width="25" height="50" as="geometry" />
        </mxCell>
        <mxCell id="3zyrOIfzfFuT3gQMHK2X-3" value="esta_interesado" style="text;html=1;align=center;verticalAlign=middle;whiteSpace=wrap;rounded=0;" vertex="1" parent="1">
          <mxGeometry x="520" y="80" width="60" height="30" as="geometry" />
        </mxCell>
        <mxCell id="3zyrOIfzfFuT3gQMHK2X-7" value="0..N" style="text;html=1;align=center;verticalAlign=middle;whiteSpace=wrap;rounded=0;" vertex="1" parent="1">
          <mxGeometry x="80" y="370" width="60" height="30" as="geometry" />
        </mxCell>
        <mxCell id="3zyrOIfzfFuT3gQMHK2X-8" value="0..N" style="text;html=1;align=center;verticalAlign=middle;whiteSpace=wrap;rounded=0;" vertex="1" parent="1">
          <mxGeometry x="900" y="150" width="60" height="30" as="geometry" />
        </mxCell>
        <mxCell id="3zyrOIfzfFuT3gQMHK2X-28" value="conforman_inmueble" style="text;html=1;align=center;verticalAlign=middle;whiteSpace=wrap;rounded=0;" vertex="1" parent="1">
          <mxGeometry x="1245" y="235" width="60" height="30" as="geometry" />
        </mxCell>
        <mxCell id="3zyrOIfzfFuT3gQMHK2X-41" style="rounded=0;orthogonalLoop=1;jettySize=auto;html=1;exitX=1;exitY=0.75;exitDx=0;exitDy=0;entryX=0;entryY=0.75;entryDx=0;entryDy=0;endArrow=block;endFill=1;" edge="1" parent="1" source="3zyrOIfzfFuT3gQMHK2X-35" target="3zyrOIfzfFuT3gQMHK2X-36">
          <mxGeometry relative="1" as="geometry" />
        </mxCell>
        <mxCell id="3zyrOIfzfFuT3gQMHK2X-35" value="1..1" style="text;html=1;align=center;verticalAlign=middle;whiteSpace=wrap;rounded=0;" vertex="1" parent="1">
          <mxGeometry x="1460" y="240" width="60" height="30" as="geometry" />
        </mxCell>
        <mxCell id="3zyrOIfzfFuT3gQMHK2X-36" value="0..N" style="text;html=1;align=center;verticalAlign=middle;whiteSpace=wrap;rounded=0;" vertex="1" parent="1">
          <mxGeometry x="1035" y="240" width="60" height="30" as="geometry" />
        </mxCell>
        <mxCell id="3zyrOIfzfFuT3gQMHK2X-42" value="" style="triangle;whiteSpace=wrap;html=1;direction=south;fillColor=#FFFFFF;" vertex="1" parent="1">
          <mxGeometry x="695" y="610" width="50" height="25" as="geometry" />
        </mxCell>
        <mxCell id="3zyrOIfzfFuT3gQMHK2X-46" style="edgeStyle=orthogonalEdgeStyle;rounded=0;orthogonalLoop=1;jettySize=auto;html=1;exitX=1;exitY=0.5;exitDx=0;exitDy=0;entryX=0;entryY=0.75;entryDx=0;entryDy=0;endArrow=none;startFill=0;" edge="1" parent="1" source="3zyrOIfzfFuT3gQMHK2X-43" target="4e2i7B92s4lmDY4O2SuO-22">
          <mxGeometry relative="1" as="geometry">
            <Array as="points">
              <mxPoint x="720" y="290" />
              <mxPoint x="875" y="290" />
            </Array>
          </mxGeometry>
        </mxCell>
        <mxCell id="3zyrOIfzfFuT3gQMHK2X-43" value="" style="triangle;whiteSpace=wrap;html=1;direction=north;" vertex="1" parent="1">
          <mxGeometry x="695" y="585" width="50" height="25" as="geometry" />
        </mxCell>
        <mxCell id="3zyrOIfzfFuT3gQMHK2X-44" value="se_oferta_en" style="text;html=1;align=center;verticalAlign=middle;whiteSpace=wrap;rounded=0;" vertex="1" parent="1">
          <mxGeometry x="620" y="590" width="60" height="30" as="geometry" />
        </mxCell>
        <mxCell id="3zyrOIfzfFuT3gQMHK2X-45" style="edgeStyle=orthogonalEdgeStyle;rounded=0;orthogonalLoop=1;jettySize=auto;html=1;exitX=1;exitY=0.25;exitDx=0;exitDy=0;entryX=1;entryY=0.5;entryDx=0;entryDy=0;endArrow=none;startFill=0;" edge="1" parent="1" source="v-jbXw5zntiqwaU9itKJ-44" target="3zyrOIfzfFuT3gQMHK2X-42">
          <mxGeometry relative="1" as="geometry" />
        </mxCell>
        <mxCell id="3zyrOIfzfFuT3gQMHK2X-47" value="0..1" style="text;html=1;align=center;verticalAlign=middle;whiteSpace=wrap;rounded=0;" vertex="1" parent="1">
          <mxGeometry x="540" y="740" width="60" height="30" as="geometry" />
        </mxCell>
        <mxCell id="3zyrOIfzfFuT3gQMHK2X-48" value="0..1" style="text;html=1;align=center;verticalAlign=middle;whiteSpace=wrap;rounded=0;" vertex="1" parent="1">
          <mxGeometry x="815" y="290" width="60" height="30" as="geometry" />
        </mxCell>
        <mxCell id="3zyrOIfzfFuT3gQMHK2X-57" value="pertenece_a" style="text;html=1;align=center;verticalAlign=middle;whiteSpace=wrap;rounded=0;" vertex="1" parent="1">
          <mxGeometry x="290" y="730" width="60" height="30" as="geometry" />
        </mxCell>
        <mxCell id="3zyrOIfzfFuT3gQMHK2X-61" style="edgeStyle=orthogonalEdgeStyle;rounded=0;orthogonalLoop=1;jettySize=auto;html=1;exitX=1;exitY=0.5;exitDx=0;exitDy=0;entryX=0.002;entryY=0.17;entryDx=0;entryDy=0;entryPerimeter=0;endArrow=block;endFill=1;" edge="1" parent="1" source="v-jbXw5zntiqwaU9itKJ-54" target="v-jbXw5zntiqwaU9itKJ-44">
          <mxGeometry relative="1" as="geometry" />
        </mxCell>
        <mxCell id="3zyrOIfzfFuT3gQMHK2X-62" value="1..1" style="text;html=1;align=center;verticalAlign=middle;whiteSpace=wrap;rounded=0;" vertex="1" parent="1">
          <mxGeometry x="240" y="760" width="60" height="30" as="geometry" />
        </mxCell>
        <mxCell id="3zyrOIfzfFuT3gQMHK2X-63" value="0..N" style="text;html=1;align=center;verticalAlign=middle;whiteSpace=wrap;rounded=0;" vertex="1" parent="1">
          <mxGeometry x="330" y="760" width="60" height="30" as="geometry" />
        </mxCell>
      </root>
    </mxGraphModel>
  </diagram>
</mxfile>
